<?xml version="1.0" encoding="UTF-8" standalone="no"?>
<svg width="245px" height="30px" viewBox="0 0 245 30" version="1.1" xmlns="http://www.w3.org/2000/svg" xmlns:xlink="http://www.w3.org/1999/xlink">
    <!-- Generator: Sketch 40.1 (33804) - http://www.bohemiancoding.com/sketch -->
    <title>logo</title>
    <desc>Created with Sketch.</desc>
    <defs></defs>
    <g id="main-v2" stroke="none" stroke-width="1" fill="none" fill-rule="evenodd">
        <g id="Desktop-HD" transform="translate(-175.000000, -34.000000)" fill="#BB8E6D">
            <g id="header" transform="translate(175.000000, 27.000000)">
                <g id="logo" transform="translate(0.000000, 7.000000)">
                    <path d="M36.6675992,7.006501 C35.6909354,7.006501 34.5762648,7.13389193 33.3448191,7.40990561 C33.1325009,6.3058509 32.3787713,2.82383222 30.7333051,2.12318212 C30.4785233,2.03825484 30.2131255,1.97455937 29.9371118,1.97455937 C28.7693617,1.97455937 26.7841864,2.8981436 24.8627066,4.2994438 C24.8308588,4.24636425 24.7990111,4.18266878 24.7565475,4.12958923 C24.4911497,3.7049528 22.1556494,1.17239551e-13 20.1280104,1.17239551e-13 L20.1280104,1.17239551e-13 C18.3233056,1.17239551e-13 16.2213553,3.18477318 15.5844007,4.18266878 C13.4930663,2.62212992 11.507891,1.93209573 10.4993795,1.93209573 C10.202134,1.93209573 9.92612034,1.98517528 9.6925703,2.08071848 C8.0895678,2.73890494 7.33583815,6.23153953 7.11290402,7.51606471 C5.71160382,7.17635557 4.40584682,7.006501 3.31240802,7.006501 L3.31240802,7.006501 C2.03849875,7.006501 1.27415319,7.22943513 0.764589476,7.72838293 C-0.647326636,9.14029904 0.30810532,13.418511 0.414264426,13.896227 C0.987523599,16.3060387 2.36759198,19.8729847 5.76468337,23.2913079 C11.1681819,28.6841905 16.8264622,29.0875951 18.4294647,29.0875951 C18.7479421,29.0875951 19.0664194,29.0663633 19.3105853,29.0557473 C19.5335194,29.1088269 19.7564536,29.1194428 19.94754,29.1194428 L20.1173945,29.1194428 L20.3721764,29.1194428 C20.5632628,29.1194428 20.7543492,29.1088269 20.9772833,29.0663633 C21.1471379,29.0875951 21.3488402,29.0875951 21.5611584,29.0875951 C23.153545,29.0875951 28.8224412,28.6841905 34.2047079,23.2913079 C37.6124152,19.8729847 39.0137154,16.3060387 39.5657428,13.896227 C39.6931337,13.418511 40.6591816,9.14029904 39.2154177,7.72838293 C38.7164699,7.22943513 37.9308925,7.006501 36.6675992,7.006501 L36.6675992,7.006501 Z M20.1386263,1.63485023 C20.5951105,1.63485023 22.1768812,2.90875951 23.5887973,5.31857122 C22.5059744,6.25277135 21.3169924,7.48421698 20.2129377,9.06598766 C19.1831944,7.51606471 18.036676,6.23153953 16.8689259,5.22302802 C18.2383783,2.94060724 19.7139899,1.63485023 20.1386263,1.63485023 L20.1386263,1.63485023 Z M6.92181763,22.1447895 C1.04060315,16.274191 1.30600092,9.48000818 1.91110782,8.87490127 C2.04911466,8.71566261 2.54806246,8.62011942 3.31240802,8.62011942 C4.20414451,8.62011942 5.47805379,8.76874217 6.92181763,9.14029904 C6.69888351,11.5713426 6.87935399,14.8516589 8.32311783,18.3442935 C9.93673625,22.3358759 12.5270184,24.936774 14.3741869,26.4123856 C14.6289687,26.6353197 14.9155983,26.837022 15.1703802,27.0174925 C12.7499526,26.3805379 9.72441803,24.9580059 6.92181763,22.1447895 L6.92181763,22.1447895 Z M16.8689259,23.1426851 C16.9538532,23.6416329 17.208635,25.3189468 17.7925101,26.7520947 C15.3826984,25.4781855 11.7945206,22.569426 9.81996123,17.7391866 C6.87935399,10.5946788 9.53333164,3.8960392 10.2976772,3.56694597 C10.3613727,3.55633006 10.4250681,3.55633006 10.5099954,3.55633006 C11.6458979,3.55633006 16.136428,5.42473032 19.2681217,10.5840629 C18.8859489,11.2210175 18.5462398,11.9216676 18.2383783,12.6860132 C16.4867531,16.8580661 16.5504486,20.669178 16.8689259,23.1426851 L16.8689259,23.1426851 Z M20.3721764,27.5270562 C20.2766332,27.5270562 20.18109,27.5164403 20.1386263,27.4952085 C19.2575058,27.1130357 16.7415349,20.4356279 19.7352217,13.301736 C22.5484381,6.52878503 28.6525867,3.5987937 29.9371118,3.5987937 C30.0114232,3.5987937 30.0645028,3.5987937 30.1069664,3.60940961 C30.8819279,3.94911875 33.7057601,10.1381946 30.510371,17.8028821 C27.5166842,24.9580059 21.847788,27.5270562 20.3721764,27.5270562 L20.3721764,27.5270562 Z M33.0581896,22.1447895 C30.5952983,24.6076808 27.9625525,26.008981 25.6907476,26.7520947 C27.9837843,25.0217013 30.3829801,22.3040282 31.9965985,18.4292208 C33.5571374,14.7030362 33.7376078,11.4333357 33.5571374,9.03413993 C34.788583,8.73689443 35.8820218,8.62011942 36.6675992,8.62011942 C37.4213288,8.62011942 37.9308925,8.71566261 38.0688994,8.86428536 C38.6740063,9.48000818 38.9287881,16.274191 33.0581896,22.1447895 L33.0581896,22.1447895 Z" id="Shape"></path>
                    <text id="ОЛЬГА-МАЙСКАЯ" font-family="ProximaNova-Regular, Proxima Nova" font-size="22" font-weight="normal" letter-spacing="1.22222209">
                        <tspan x="50.3275564" y="22">ОЛЬГА МАЙСКАЯ</tspan>
                    </text>
                </g>
            </g>
        </g>
    </g>
</svg>